PathFileType        4      (X/Y/Z)      C:\Users\pc\Desktop\IMUTRC\Sujet_03\Sujet_03_velo_100.trc         
DataRate	CameraRate	NumFrames	NumMarkers	Units	OrigDataRate	OrigDataStartFrame	OrigNumFrames
60.0	60.0	4	64	mm	60.0	474	947
Frame#	Time	pHipOrigin			pRightASI			pLeftASI			pRightCSI			pLeftCSI			pRightIschialTub			pLeftIschialTub			pSacrum			pL5SpinalProcess			pL3SpinalProcess			pT12SpinalProcess			pIJ			pT4SpinalProcess			pT8SpinalProcess			pPX			pC7SpinalProcess			pTopOfHead			pRightAuricularis			pLeftAuricularis			pBackOfHead			pRightAcromion			pLeftAcromion			pRightArmLatEpicondyle			pRightArmMedEpicondyle			pLeftArmLatEpicondyle			pLeftArmMedEpicondyle			pRightUlnarStyloid			pRightRadialStyloid			pRightOlecranon			pLeftUlnarStyloid			pLeftRadialStyloid			pLeftOlecranon			pRightTopOfHand			pRightPinky			pRightBallHand			pLeftTopOfHand			pLeftPinky			pLeftBallHand			pRightGreaterTrochanter			pRightKneeLatEpicondyle			pRightKneeMedEpicondyle			pRightPatella			pLeftGreaterTrochanter			pLeftKneeLatEpicondyle			pLeftKneeMedEpicondyle			pLeftPatella			pRightTibialTub			pRightLatMalleolus			pRightMedMalleolus			pLeftTibialTub			pLeftLatMalleolus			pLeftMedMalleolus			pRightHeelFoot			pRightFirstMetatarsal			pRightFifthMetatarsal			pRightPivotFoot			pRightHeelCenter			pRightToe			pLeftHeelFoot			pLeftFirstMetatarsal			pLeftFifthMetatarsal			pLeftPivotFoot			pLeftHeelCenter			pLeftToe			
		X1	Y1	Z1	X2	Y2	Z2	X3	Y3	Z3	X4	Y4	Z4	X5	Y5	Z5	X6	Y6	Z6	X7	Y7	Z7	X8	Y8	Z8	X9	Y9	Z9	X10	Y10	Z10	X11	Y11	Z11	X12	Y12	Z12	X13	Y13	Z13	X14	Y14	Z14	X15	Y15	Z15	X16	Y16	Z16	X17	Y17	Z17	X18	Y18	Z18	X19	Y19	Z19	X20	Y20	Z20	X21	Y21	Z21	X22	Y22	Z22	X23	Y23	Z23	X24	Y24	Z24	X25	Y25	Z25	X26	Y26	Z26	X27	Y27	Z27	X28	Y28	Z28	X29	Y29	Z29	X30	Y30	Z30	X31	Y31	Z31	X32	Y32	Z32	X33	Y33	Z33	X34	Y34	Z34	X35	Y35	Z35	X36	Y36	Z36	X37	Y37	Z37	X38	Y38	Z38	X39	Y39	Z39	X40	Y40	Z40	X41	Y41	Z41	X42	Y42	Z42	X43	Y43	Z43	X44	Y44	Z44	X45	Y45	Z45	X46	Y46	Z46	X47	Y47	Z47	X48	Y48	Z48	X49	Y49	Z49	X50	Y50	Z50	X51	Y51	Z51	X52	Y52	Z52	X53	Y53	Z53	X54	Y54	Z54	X55	Y55	Z55	X56	Y56	Z56	X57	Y57	Z57	X58	Y58	Z58	X59	Y59	Z59	X60	Y60	Z60	X61	Y61	Z61	X62	Y62	Z62	X63	Y63	Z63	X64	Y64	Z64	
474	7.883	0.0	1249.98655	7.653960137173716E-14	102.06793000000002	1330.10873	129.54333000000008	84.61500999999998	1325.03989	-144.34662999999992	76.20535	1407.63888	105.75436000000009	61.80523999999999	1403.43405	-120.32725999999991	-66.81648	1211.56708	61.747640000000075	-74.01653	1209.49346	-51.32196999999992	-59.09802	1289.78844	2.995220000000083	5.18404	1375.84345	-3.340819999999916	76.03254	1472.38174	-11.116879999999915	141.52421	1560.16477	-18.89293999999991	411.49735	1591.7874	-33.06263999999993	290.76688	1697.82976	-34.56024999999992	214.96474	1640.34455	-27.244999999999916	311.21503	1508.95801	-22.982559999999925	337.19281	1731.1804	-37.670669999999916	586.257	1829.5043	-81.67737999999993	518.74932	1774.43831	7.8336600000000765	489.66111	1769.65747	-133.51775999999992	472.61138	1818.90583	-57.888409999999915	345.77528	1738.03485	170.67002000000008	324.92393	1702.32259	-249.0641799999999	425.60945	1444.67595	171.01562000000007	405.96771	1437.6487	114.10642000000006	413.39816	1418.35256	-213.17912999999993	400.55327	1419.90777	-153.96589999999995	508.15084	1202.06301	117.27444000000004	557.62959	1222.45355	123.20728000000004	389.03319	1437.24549	142.27302000000006	508.89964	1182.76687	-168.76920999999993	556.41998	1204.36703	-182.01729999999995	380.68113	1414.14773	-179.71328999999994	688.72813	1090.54861	193.24938000000003	597.37388	1105.00631	155.23311000000004	555.72878	1167.56036	120.55766000000004	674.67363	1075.6301	-277.17319	592.47784	1087.78379	-221.41598999999997	556.59279	1149.58903	-179.77088999999998	23.67377000000001	1223.72076	165.1979800000001	257.93465	885.26074	134.09376000000003	260.98747	887.16155	54.144390000000044	294.56851	914.11855	93.48547000000005	7.200049999999989	1233.39763	-169.69081999999992	357.98656	1020.21851	-213.69752999999997	374.92109	1019.9881	-135.53376999999998	387.01717	1059.96279	-176.19965999999997	285.87085	830.19475	91.52706000000005	-10.828879999999996	530.3846	69.75410000000002	-1.6704099999999997	533.55262	3.5712300000000328	407.58052	974.77178	-178.44607999999997	212.14232	600.3115	-179.19487999999998	222.9712	600.5419	-113.18480999999997	-84.49981	491.67712	-3.6864299999999646	61.40204	402.51168	-29.37620999999998	36.57626	377.1099	44.121920000000024	67.73809	376.18829	7.776060000000019	-52.01317	468.00335	-0.8640099999999681	134.09376	325.78793	12.72969000000001	168.94201	527.44698	-104.94794999999999	339.38163	500.72039	-116.58322999999999	311.67583	477.50742	-189.79336	347.56089	484.18907	-158.74674	206.61268	519.15252	-116.52562999999999	425.43665	465.23853	-182.1325	
475	7.9	0.0	1249.98655	7.653960137173716E-14	101.66473000000002	1331.31833	129.14012000000008	84.90300999999998	1323.94548	-144.74983999999992	75.74454	1408.61809	104.65995000000008	61.92043999999999	1402.51244	-121.42166999999992	-66.93168	1212.02788	61.92044000000008	-73.84373	1208.97506	-51.14916999999992	-59.15562	1289.73084	2.5344200000000825	5.06884	1375.84345	-4.3776299999999155	75.80214	1472.38174	-12.268889999999915	141.23621	1560.27997	-19.92973999999991	411.26695	1592.2482	-31.85302999999993	290.42128	1698.11776	-34.61784999999991	214.56154	1640.51735	-27.878599999999913	311.04223	1509.30361	-22.521759999999926	336.84721	1731.526	-37.26746999999992	586.0266	1829.8499	-80.64057999999993	518.51891	1774.66871	8.812860000000077	489.2579	1770.23348	-132.48094999999992	472.32338	1819.30903	-56.794009999999915	344.16246	1738.38045	171.0156200000001	325.09673	1702.9562	-248.94897999999992	425.26385	1445.48235	170.15162000000007	405.91011	1438.6279	113.12721000000006	413.85896	1418.75576	-213.52472999999995	400.95647	1420.13817	-154.36910999999995	508.38124	1203.15742	116.06483000000004	557.80239	1223.66316	121.99767000000004	388.80278	1438.0519	141.29381000000006	509.64845	1183.17007	-169.80601999999993	557.11119	1204.82783	-183.11170999999993	381.14193	1414.43573	-180.05888999999993	689.07373	1091.64302	191.75177000000002	597.66188	1106.10072	153.79310000000004	555.95918	1168.71237	119.29045000000005	675.30724	1076.37891	-278.6132	593.22665	1088.35979	-222.74079999999998	557.28399	1150.04984	-180.98049999999998	24.88338000000001	1226.31278	165.48599000000007	276.30918	900.06405	138.01059000000004	279.1892	901.15845	58.11882000000004	311.38783	930.30426	96.99909000000004	6.278439999999989	1229.59601	-169.2300099999999	344.45047	996.08393	-207.82228999999998	361.61539	997.12074	-129.71612999999996	375.78509	1035.19461	-171.53402999999997	300.73175	843.84604	95.04068000000004	-10.713679999999997	559.70321	69.12050000000004	-1.0944099999999999	563.10163	2.995220000000035	396.69404	952.99883	-174.12604999999996	217.72956	570.47449	-181.90209999999996	228.78884	569.84088	-115.94962999999998	-86.34302	524.45176	-3.859229999999963	55.5268	429.46868	-31.219419999999978	30.240220000000004	404.6429	42.33630000000002	61.05644	402.62688	5.7024400000000215	-54.83559	499.45318	-1.4976099999999661	125.2809	349.4041	9.849670000000014	176.14206	494.96034	-109.44077999999999	347.33049	472.95699	-119.75125999999999	321.0647	450.37763	-193.71019	356.37375	457.46248	-162.08756	214.15833	487.93309	-120.84566999999998	434.99832	440.98876	-185.01253	
476	7.917	0.0	1249.98655	7.653960137173716E-14	100.97352000000001	1332.52794	128.90972000000008	85.42140999999998	1322.85107	-144.98023999999992	75.05334	1409.5973	103.62314000000009	62.20844999999999	1401.59084	-122.40087999999992	-67.16208	1212.43108	61.92044000000008	-73.61333	1208.45665	-51.14916999999992	-59.21322	1289.67324	1.9584100000000826	4.89604	1375.78585	-5.4144399999999155	75.45654	1472.43935	-13.305699999999915	140.71781	1560.45278	-20.79374999999991	410.74854	1593.22741	-30.29781999999993	289.61487	1698.69377	-34.44504999999991	213.92793	1640.86295	-28.396999999999913	310.75423	1509.99481	-21.830559999999924	335.98321	1732.27481	-36.63385999999991	585.16259	1831.00191	-79.08536999999993	517.65491	1775.53272	10.195270000000077	488.4515	1771.44309	-131.09853999999993	471.45938	1820.34584	-55.29639999999991	342.03125	1739.12926	171.5340300000001	324.86633	1703.9354	-248.54577999999992	424.39984	1446.63436	169.46041000000005	405.0461	1439.89511	112.43601000000005	413.85896	1419.38937	-214.04312999999993	400.89887	1420.54137	-154.88750999999993	507.97804	1204.59743	114.74002000000004	557.39919	1225.16077	120.67286000000004	387.99638	1439.20391	140.66021000000006	509.99405	1183.80368	-171.13082999999995	557.39919	1205.57663	-184.49411999999995	381.14193	1414.89653	-180.51968999999994	688.84333	1093.14063	190.08136000000002	597.37388	1107.59833	152.23789000000002	555.61358	1170.20998	117.85044000000005	675.53764	1077.30052	-280.39881	593.51465	1089.1662	-224.35360999999997	557.62959	1150.79864	-182.42050999999998	25.632180000000012	1228.732	165.71639000000008	295.02931	916.94097	141.58181000000002	298.19734	917.63217	61.63244000000004	328.55275	948.79399	100.45512000000004	5.2992399999999895	1225.85198	-168.71160999999992	327.86155	970.27895	-200.73743999999996	345.25687	972.46776	-122.74647999999996	361.73059	1008.35282	-165.65878999999998	316.39907	860.37736	97.74790000000004	-7.372849999999995	590.57703	69.69650000000004	2.0736100000000004	594.37866	3.628830000000036	382.12114	929.72826	-167.78999999999996	218.65117	540.57987	-182.76610999999997	229.59524	539.19746	-116.81363999999999	-84.90301	559.012	-2.5920199999999607	52.93478	459.01769	-32.65942999999997	27.475400000000004	434.24951	40.89629000000003	57.77321	431.54229	3.916830000000023	-54.37479	532.80382	-0.864009999999964	120.03926	375.84269	6.739250000000016	177.92767	463.04972	-112.32079999999999	349.6921	444.55998	-120.50006	324.92393	422.84463	-195.2078	359.59938	429.98708	-162.95157	216.23195	456.94407	-123.26487999999999	438.91514	415.47178	-185.01253	
477	7.933	0.0	1249.98655	7.653960137173716E-14	100.10952000000002	1333.79515	128.7945200000001	86.17021999999999	1321.75667	-145.0954399999999	74.18933	1410.5765	102.70154000000008	62.66924999999999	1400.66923	-123.32247999999991	-67.45008	1212.83429	61.86284000000008	-73.21012	1207.88065	-51.20676999999992	-59.27082	1289.61564	1.2672100000000825	4.66563	1375.72825	-6.393649999999916	75.05334	1472.49695	-14.342499999999914	140.1418	1560.68318	-21.65775999999991	410.11494	1594.55222	-28.56979999999993	288.57807	1699.44257	-34.15703999999991	213.06393	1641.32375	-28.742609999999914	310.35102	1510.85882	-20.908949999999926	334.8312	1733.25401	-35.88505999999992	583.95298	1832.55712	-77.18454999999993	516.4453	1776.79992	11.865680000000076	487.35709	1773.0559	-129.4857299999999	470.30737	1821.72825	-53.51077999999991	339.49683	1740.16606	172.1676300000001	324.46312	1705.20261	-248.0273799999999	423.24783	1447.90157	168.94201000000007	403.83649	1441.27752	111.91760000000005	413.45576	1420.08057	-214.67673999999994	400.55327	1421.05978	-155.46350999999996	507.22923	1206.26784	113.35761000000004	556.59279	1226.88879	119.17525000000005	386.72917	1440.47112	140.19940000000005	510.10925	1184.55248	-172.62843999999996	557.45679	1206.44064	-186.04932999999994	380.79633	1415.47254	-181.03809999999993	688.26733	1094.92624	188.29575000000003	596.74027	1109.32634	150.56748000000002	554.86477	1171.88039	116.35283000000004	675.48004	1078.33732	-282.35722	593.62985	1090.08781	-226.13921999999997	557.74479	1151.66265	-184.03331999999997	25.97779000000001	1231.09362	166.0043900000001	313.86465	936.0067	145.09544000000002	317.55107	936.64031	65.20367000000005	345.66008	969.70294	104.08395000000004	4.2624299999999895	1222.16555	-168.07799999999992	308.04701	943.78276	-192.55817999999996	325.67273	946.95078	-114.56721999999996	344.56567	980.35902	-158.51633999999999	332.87278	879.2127	100.22472000000005	-1.0944099999999957	622.25726	71.59731000000004	7.89126	626.63489	5.529640000000037	364.66821	904.96008	-160.18674999999996	215.07994	510.57006	-181.95969999999997	225.73602	508.55404	-116.00722999999999	-80.23737	594.37866	-0.11519999999995868	53.85639	490.35231	-33.23543999999997	28.512200000000004	465.46893	40.32029000000003	58.29162	462.24331	2.9376200000000248	-50.57316	567.13366	0.9216100000000379	118.71445	404.5277	4.204830000000018	174.70205	431.71509	-113.58800999999998	346.75448	415.52938	-119.29044999999999	323.42632	394.79323	-194.74699	357.52576	401.82048	-161.85716	213.23673	426.24305	-123.95608999999999	437.35993	388.62998	-182.88131	
